<svg width="172" height="22" viewBox="0 0 172 22" fill="none" xmlns="http://www.w3.org/2000/svg">
<path d="M52.8155 12.5228C52.8155 14.1912 52.191 15.4624 50.9421 16.3364C49.6932 17.2103 47.8878 17.6473 45.5261 17.6473C43.1323 17.6473 41.3189 17.2136 40.086 16.3463C38.8611 15.479 38.2487 14.2045 38.2487 12.5228V3.02849H42.0195V12.5625C42.0195 14.3104 43.1883 15.1877 45.5261 15.1943C47.8718 15.1943 49.0447 14.317 49.0447 12.5625V3.02849H52.8155V12.5228Z" fill="#293A38"/>
<path d="M61.9783 2.84973C63.4194 2.84311 65.0406 3.10463 66.8419 3.6343L66.0854 6.0178C64.4121 5.52786 63.0511 5.28289 62.0023 5.28289C61.1537 5.28289 60.4852 5.42193 59.9968 5.7C59.5085 5.97808 59.2643 6.35546 59.2643 6.83216C59.2643 7.34859 59.4885 7.75908 59.9368 8.06364C60.3931 8.3682 61.2218 8.64958 62.4226 8.9078C64.192 9.28518 65.4489 9.80823 66.1935 10.4769C66.938 11.139 67.3103 12.0527 67.3103 13.218C67.3103 14.6282 66.7339 15.7107 65.581 16.4655C64.4361 17.2136 62.7989 17.5877 60.6693 17.5877C58.9321 17.5877 57.0707 17.2633 55.0852 16.6144L55.9738 14.3005C57.0707 14.6249 57.9673 14.8533 58.6639 14.9857C59.3604 15.1115 60.0209 15.1744 60.6453 15.1744C61.55 15.1744 62.2465 15.0155 62.7349 14.6977C63.2313 14.3733 63.4794 13.9264 63.4794 13.357C63.4794 12.9929 63.3754 12.6883 63.1672 12.4433C62.959 12.1984 62.6068 11.9799 62.1104 11.7879C61.614 11.5892 60.8975 11.3939 59.9608 11.2019C58.3997 10.8907 57.2588 10.4074 56.5383 9.75195C55.8177 9.09649 55.4575 8.23247 55.4575 7.1599C55.4575 5.78938 56.0259 4.73005 57.1627 3.98189C58.3076 3.22712 59.9128 2.84973 61.9783 2.84973Z" fill="#293A38"/>
<path d="M81.7811 5.39213H77.0615V17.4487H73.3027V5.39213H68.4031V3.02849H81.7811V5.39213Z" fill="#293A38"/>
<path d="M87.8816 8.98725H98.0892V11.331H91.6404V17.4487H87.8816V3.02849H99.0979V5.36234H87.8816V8.98725Z" fill="#80E1F4"/>
<path d="M105.186 17.4487H101.476V3.02849H107.456C109.634 3.02849 111.303 3.4125 112.464 4.18052C113.633 4.94192 114.217 6.05753 114.217 7.52735C114.217 8.43441 113.937 9.21897 113.377 9.88106C112.816 10.5431 112.02 11.0529 110.987 11.4105L114.806 17.4487H110.795L107.6 11.9567H105.186V17.4487ZM107.3 9.72216C108.381 9.72216 109.177 9.5434 109.69 9.18587C110.21 8.82172 110.47 8.26889 110.47 7.52735C110.47 6.76596 110.21 6.20981 109.69 5.8589C109.177 5.50138 108.381 5.32261 107.3 5.32261H105.186V9.72216H107.3Z" fill="#80E1F4"/>
<path d="M117.328 3.02849H121.086V17.4487H117.328V3.02849Z" fill="#80E1F4"/>
<path d="M130.91 3.02849C133.912 3.02849 136.17 3.62768 137.683 4.82605C139.204 6.02442 139.964 7.80543 139.964 10.1691C139.964 12.5526 139.196 14.3634 137.659 15.6015C136.13 16.8329 133.88 17.4487 130.91 17.4487H125.061V3.02849H130.91ZM131.162 15.1347C132.787 15.1347 134.016 14.7209 134.849 13.8933C135.681 13.0657 136.097 11.8375 136.097 10.2088C136.097 8.60655 135.685 7.39825 134.861 6.58388C134.036 5.76952 132.803 5.36234 131.162 5.36234H128.772V15.1347H131.162Z" fill="#80E1F4"/>
<path d="M156.285 16.5549C155.364 16.8925 154.383 17.154 153.342 17.3394C152.302 17.5182 151.281 17.6076 150.28 17.6076C147.574 17.6076 145.48 16.9687 143.999 15.6908C142.518 14.4064 141.778 12.5923 141.778 10.2485C141.778 7.8915 142.542 6.07077 144.071 4.78633C145.609 3.49526 147.778 2.84973 150.58 2.84973C151.565 2.84973 152.55 2.94904 153.534 3.14767C154.519 3.33967 155.404 3.61113 156.188 3.96203L155.084 6.15684C154.251 5.87214 153.522 5.6669 152.898 5.5411C152.274 5.40868 151.649 5.34248 151.025 5.34248C149.255 5.34248 147.914 5.75297 147.002 6.57395C146.089 7.39494 145.633 8.59993 145.633 10.1889C145.633 11.7647 146.053 12.9862 146.894 13.8536C147.742 14.7209 148.939 15.1546 150.484 15.1546C151.269 15.1546 152.037 15.0652 152.79 14.8864V10.1293H156.285V16.5549Z" fill="#80E1F4"/>
<path d="M159.431 8.88793H171.043V11.1423H159.431V15.1546H171.043V17.4487H159.431V3.02849H171.043V5.34248H159.431V8.88793Z" fill="#80E1F4"/>
<path d="M25.7746 4.38721H33.6364V14.3732C33.6364 16.3625 29.3205 19.4811 24.9884 15.614" stroke="#293A38" stroke-width="3"/>
<path d="M15.4509 13.8902L12.2717 12.5607V21H1V12.5607V2.83551H7.01156H12.2717L15.4509 1H17.0116V13.8902H15.4509Z" fill="#293A38"/>
<path d="M7.01156 12.5607H12.2717M7.01156 12.5607V9.10768M7.01156 12.5607H1M12.2717 12.5607L15.4509 13.8902M12.2717 12.5607V9.10768M12.2717 12.5607V21H1V12.5607M15.4509 13.8902V9.95954M15.4509 13.8902H17.0116V1H15.4509M15.4509 1L12.2717 2.83551M15.4509 1V4.94583M12.2717 2.83551H7.01156M12.2717 2.83551V5.79769M7.01156 2.83551V5.10405V5.79769M7.01156 2.83551H1V12.5607M15.4509 9.95954L12.2717 9.10768M15.4509 9.95954V4.94583M12.2717 9.10768H7.01156M12.2717 9.10768V5.79769M7.01156 9.10768V5.79769M7.01156 5.79769H12.2717M12.2717 5.79769L15.4509 4.94583" stroke="white" stroke-width="0.5"/>
<path d="M12.2139 12.4292H6.95374V9.08462V5.87853V5.20667V3.00934H12.2139L15.393 1.23145V5.87853V9.90974V13.717L12.2139 12.4292Z" fill="#80E1F4"/>
<path d="M12.2139 12.4292H6.95374V9.08462M12.2139 12.4292L15.393 13.717V9.90974M12.2139 12.4292V9.08462M12.2139 3.00934L15.393 1.23145V5.87853M12.2139 3.00934H6.95374V5.20667V5.87853M12.2139 3.00934V5.87853M15.393 9.90974L12.2139 9.08462M15.393 9.90974V5.87853M12.2139 9.08462H6.95374M12.2139 9.08462V5.87853M6.95374 9.08462V5.87853M6.95374 5.87853H12.2139M12.2139 5.87853H15.393" stroke="white" stroke-width="0.5"/>
<path d="M12.2139 12.3852H6.95374V9.04062V5.83453V5.16266V2.96533H12.2139V5.83453V9.04062V12.3852Z" fill="#52C7DE"/>
<path d="M12.2139 9.04062V12.3852H6.95374V9.04062M12.2139 9.04062H6.95374M12.2139 9.04062V5.83453M6.95374 9.04062V5.83453M6.95374 5.83453V5.16266V2.96533H12.2139V5.83453M6.95374 5.83453H12.2139" stroke="white" stroke-width="0.5"/>
</svg>
